<svg xmlns="http://www.w3.org/2000/svg" width="16" height="16" viewBox="0 0 16 16"><path fill="#222" d="m 1 3 l -1 3 v 2.5 c 0 0.277344 0.222656 0.5 0.5 0.5 h 2 c 0.277344 0 0.5 -0.222656 0.5 -0.5 v -2 c 0 -0.277344 -0.222656 -0.5 -0.5 -0.5 h -0.5 l 1 -3 z m 4 0 l -1 3 v 2.5 c 0 0.277344 0.222656 0.5 0.5 0.5 h 2 c 0.277344 0 0.5 -0.222656 0.5 -0.5 v -2 c 0 -0.277344 -0.222656 -0.5 -0.5 -0.5 h -0.5 l 1 -3 z m 4.5 4 c -0.277344 0 -0.5 0.222656 -0.5 0.5 v 2 c 0 0.277344 0.222656 0.5 0.5 0.5 h 0.5 l -1 3 h 2 l 1 -3 v -2.5 c 0 -0.277344 -0.222656 -0.5 -0.5 -0.5 z m 4 0 c -0.277344 0 -0.5 0.222656 -0.5 0.5 v 2 c 0 0.277344 0.222656 0.5 0.5 0.5 h 0.5 l -1 3 h 2 l 1 -3 v -2.5 c 0 -0.277344 -0.222656 -0.5 -0.5 -0.5 z m 0 0"/></svg>